<?xml version="1.0" encoding="iso-8859-1"?>
<!-- Generator: Adobe Illustrator 19.0.0, SVG Export Plug-In . SVG Version: 6.00 Build 0)  -->
<svg version="1.1" id="Capa_1" xmlns="http://www.w3.org/2000/svg" xmlns:xlink="http://www.w3.org/1999/xlink" x="0px" y="0px"
	 viewBox="0 0 512 512" style="enable-background:new 0 0 512 512;" xml:space="preserve">
<g>
	<g>
		<path fill="#afd1d3" d="M311.538,263.55L278.599,78.856c-2.07-11.604-13.196-19.355-24.797-17.29L69.11,94.504
			c-5.621,1.003-10.515,4.135-13.781,8.818c-3.266,4.684-4.513,10.358-3.51,15.979l32.939,184.693
			c1.002,5.621,6.756,19.669,24.796,17.291l184.693-32.938C305.85,286.277,313.607,275.154,311.538,263.55z M137.087,301.137
			l-2.902-16.275c-2.101-11.777,0.94-23.924,8.341-33.324l7.265-9.226c9.288,5.118,19.869,7.989,30.898,7.988
			c3.729,0,7.512-0.327,11.309-1.004c14.638-2.611,27.631-10.032,37.225-21.124l9.972,6.125
			c10.195,6.262,17.247,16.607,19.348,28.385l2.903,16.277L137.087,301.137z M291.614,273.579l-15.4,2.747l-2.903-16.277
			c-2.852-15.989-12.424-30.033-26.264-38.533l-9.376-5.759c6.572-12.541,8.816-26.813,6.29-40.978
			c-3.012-16.893-12.422-31.601-26.497-41.414c-14.074-9.813-31.126-13.558-48.021-10.548c-13.263,2.365-25.236,8.692-34.626,18.297
			c-2.896,2.962-2.841,7.711,0.121,10.606c2.962,2.894,7.71,2.842,10.606-0.12c7.191-7.356,16.366-12.203,26.533-14.016
			c12.947-2.314,26.019,0.561,36.808,8.084c10.788,7.522,18.001,18.796,20.31,31.743c2.309,12.948-0.562,26.02-8.084,36.808
			c-7.522,10.788-18.796,18.001-31.744,20.31c-26.725,4.772-52.35-13.1-57.118-39.827c-1.012-5.678-1.033-11.407-0.061-17.029
			c0.705-4.082-2.032-7.962-6.113-8.668c-4.079-0.705-7.962,2.032-8.668,6.113c-1.269,7.344-1.244,14.819,0.076,22.217
			c2.591,14.529,9.906,27.049,20.08,36.264l-6.82,8.659c-10.048,12.761-14.175,29.249-11.323,45.236l2.903,16.277l-15.401,2.747
			c-1.679,0.298-3.37-0.072-4.766-1.047c-1.397-0.974-2.331-2.434-2.63-4.109l-32.94-184.695c-0.299-1.676,0.073-3.368,1.047-4.766
			s2.434-2.331,4.111-2.63l184.692-32.938c4.168-0.68,6.846,2.073,7.396,5.156l32.939,184.693
			C297.389,269.644,295.075,272.962,291.614,273.579z"/>
	</g>
</g>
<g>
	<g>
		<path fill="#afd1d3" d="M498.423,122.461c-9.848-11.563-23.609-18.6-38.749-19.812l-128.9-10.328l-6.627-37.158
			c-2.667-14.953-10.996-27.972-23.455-36.659c-12.459-8.687-27.555-12-42.507-9.337L46.884,46.852
			c-30.866,5.505-51.5,35.095-45.995,65.962l50.643,283.957c4.905,27.506,23.878,50.667,65.961,45.996l44.034-7.853
			c1.044,11.611,5.616,22.6,13.33,31.657c9.848,11.563,23.609,18.6,38.749,19.812l213.95,17.143
			c19.903,1.401,31.03-4.55,41.409-13.389c11.563-9.848,18.6-23.609,19.813-38.749l23.037-287.518
			C513.026,148.731,508.271,134.025,498.423,122.461z M114.859,427.999c-22.725,4.053-44.508-11.138-48.561-33.861L15.656,110.181
			c-4.052-22.725,11.138-44.51,33.862-48.562l211.301-37.685c16.432-3.12,24.19,1.92,31.293,6.873
			c9.172,6.396,15.304,15.98,17.268,26.988l50.643,283.957c4.052,22.725-11.138,44.51-33.862,48.562L114.859,427.999z
			 M496.861,162.672L473.824,450.19c-0.893,11.146-6.073,21.276-14.586,28.525c-8.514,7.251-19.347,10.741-30.485,9.858
			l-213.95-17.143c-11.146-0.894-21.277-6.073-28.526-14.586c-5.96-6.998-9.379-15.56-9.914-24.577l152.433-27.186
			c17.199-3.067,31.214-13.618,39.307-27.696l55.645,4.458c0.579,0.047,21.23,3.219,23.015-19.6l14.984-187.008
			c0.456-5.691-1.332-11.22-5.034-15.566c-3.702-4.348-8.875-6.992-14.55-7.446l-76.454-6.294c-4.13-0.346-7.751,2.731-8.09,6.859
			c-0.34,4.128,2.731,7.75,6.859,8.09l76.471,6.296c1.697,0.136,3.24,0.924,4.344,2.221s1.637,2.945,1.501,4.644L431.81,361.046
			c-0.281,3.504-3.354,6.127-6.865,5.847l-50.967-4.083c1.883-7.532,2.261-15.564,0.812-23.689l-41.293-231.534l124.98,10.014
			c11.146,0.894,21.277,6.073,28.527,14.586C494.253,140.699,497.754,151.526,496.861,162.672z"/>
	</g>
</g>
<g>
	<g>
		<path fill="#afd1d3" d="M345.255,344.389l-4.992-27.988c-0.726-4.078-4.619-6.787-8.7-6.067c-4.077,0.727-6.794,4.623-6.066,8.7l4.992,27.989
			c0.555,3.11-0.139,6.258-1.955,8.861c-1.816,2.603-4.529,4.342-7.64,4.897l-23.827,4.249c-4.077,0.727-6.794,4.623-6.066,8.7
			c0.647,3.633,3.717,6.754,8.7,6.068l23.826-4.249c7.056-1.258,13.204-5.195,17.311-11.086
			C344.944,358.574,346.514,351.444,345.255,344.389z"/>
	</g>
</g>
<g>
</g>
<g>
</g>
<g>
</g>
<g>
</g>
<g>
</g>
<g>
</g>
<g>
</g>
<g>
</g>
<g>
</g>
<g>
</g>
<g>
</g>
<g>
</g>
<g>
</g>
<g>
</g>
<g>
</g>
</svg>
